<?xml version="1.0" encoding="UTF-8" standalone="no"?>
<!-- Created with Inkscape (http://www.inkscape.org/) -->

<svg
   version="1.1"
   id="svg9"
   width="880"
   height="880"
   viewBox="0 0 880 880"
   sodipodi:docname="bench-park-publicdomainvectors.org.svg"
   inkscape:version="1.2 (dc2aedaf03, 2022-05-15)"
   xmlns:inkscape="http://www.inkscape.org/namespaces/inkscape"
   xmlns:sodipodi="http://sodipodi.sourceforge.net/DTD/sodipodi-0.dtd"
   xmlns="http://www.w3.org/2000/svg"
   xmlns:svg="http://www.w3.org/2000/svg">
  <defs
     id="defs13">
    <clipPath
       clipPathUnits="userSpaceOnUse"
       id="clipPath27">
      <path
         d="M 0,660 H 660 V 0 H 0 Z"
         id="path25" />
    </clipPath>
  </defs>
  <sodipodi:namedview
     id="namedview11"
     pagecolor="#ffffff"
     bordercolor="#000000"
     borderopacity="0.25"
     inkscape:showpageshadow="2"
     inkscape:pageopacity="0.0"
     inkscape:pagecheckerboard="0"
     inkscape:deskcolor="#d1d1d1"
     showgrid="false"
     inkscape:zoom="0.925"
     inkscape:cx="440"
     inkscape:cy="440"
     inkscape:window-width="1920"
     inkscape:window-height="1017"
     inkscape:window-x="-8"
     inkscape:window-y="-8"
     inkscape:window-maximized="1"
     inkscape:current-layer="g17">
    <inkscape:page
       x="0"
       y="0"
       id="page15"
       width="880"
       height="880" />
  </sodipodi:namedview>
  <g
     id="g17"
     inkscape:groupmode="layer"
     inkscape:label="Page 1"
     transform="matrix(1.3333333,0,0,-1.3333333,0,880)">
    <path
       d="M 0,0 H 660 V 659.989 H 0 Z"
       style="fill:#e8a892;fill-opacity:1;fill-rule:nonzero;stroke:none"
       id="path19" />
    <g
       id="g21">
      <g
         id="g23"
         clip-path="url(#clipPath27)">
        <g
           id="g29"
           transform="translate(0.001,208.8721)">
          <path
             d="m 0,0 v 208.295 c 2.188,0.137 4.391,0.215 6.614,0.215 54.336,0 98.966,-41.527 103.901,-94.574 7.645,3.852 16.282,6.024 25.427,6.024 7.779,0 15.19,-1.57 21.937,-4.41 8.785,47.246 50.218,83.021 100.011,83.021 45.696,0 84.355,-30.13 97.198,-71.606 11.228,7.011 24.492,11.066 38.705,11.066 40.421,0 73.189,-32.767 73.189,-73.188 0,-40.421 -32.768,-73.19 -73.189,-73.19 -26.375,0 -49.489,13.953 -62.369,34.879 -18.523,-19.368 -44.62,-31.431 -73.534,-31.431 -30.468,0 -57.804,13.397 -76.449,34.617 -10.31,-13.917 -26.85,-22.94 -45.499,-22.94 -21.545,0 -40.275,12.041 -49.835,29.758 C 66.964,14.053 38.457,-0.214 6.614,-0.214 4.391,-0.214 2.188,-0.137 0,0 M 660.988,129.805 V 4.396 c -9.997,0.537 -19.371,3.413 -27.588,8.09 -8.347,-8.402 -19.911,-13.603 -32.689,-13.603 -25.451,0 -46.082,20.63 -46.082,46.081 0,25.45 20.631,46.082 46.082,46.082 1.861,0 3.695,-0.113 5.5,-0.327 8.925,21.973 29.931,37.752 54.777,39.086"
             style="fill:#d45d61;fill-opacity:1;fill-rule:evenodd;stroke:none"
             id="path31" />
        </g>
        <path
           d="M 0,-1 H 660.989 V 193.291 H 0 Z"
           style="fill:#a18b84;fill-opacity:1;fill-rule:evenodd;stroke:none"
           id="path33" />
        <path
           d="M 0.001,-1 H 660.989 V 77.633 H 10e-4 Z"
           style="fill:#2e1e1a;fill-opacity:1;fill-rule:evenodd;stroke:none"
           id="path35" />
        <path
           d="M 0,193.291 H 660.989 V 251.12 H 0 Z"
           style="fill:#d48e77;fill-opacity:1;fill-rule:evenodd;stroke:none"
           id="path37" />
        <g
           id="g39"
           transform="translate(0.001,235.0254)">
          <path
             d="m 0,0 h 262.165 c 3.26,0 5.93,-2.668 5.93,-5.929 0,-3.261 -2.67,-5.929 -5.93,-5.929 H 0 Z"
             style="fill:#c47960;fill-opacity:1;fill-rule:evenodd;stroke:none"
             id="path41" />
        </g>
        <path
           d="m 0,193.291 h 660.989 v 23.946 H 0 Z"
           style="fill:#c47960;fill-opacity:1;fill-rule:evenodd;stroke:none"
           id="path43" />
        <path
           d="m 0,185.162 h 660.989 v 8.129 H 0 Z"
           style="fill:#875040;fill-opacity:1;fill-rule:evenodd;stroke:none"
           id="path45" />
        <g
           id="g47"
           transform="translate(253.8535,545.458)">
          <path
             d="m 0,0 c 29.863,0 54.073,-24.21 54.073,-54.073 0,-2.205 -0.135,-4.377 -0.391,-6.512 23.913,-16.875 39.534,-44.718 39.534,-76.211 0,-51.481 -41.734,-93.216 -93.216,-93.216 -51.481,0 -93.215,41.735 -93.215,93.216 0,31.493 15.621,59.336 39.534,76.211 -0.255,2.135 -0.392,4.307 -0.392,6.512 C -54.073,-24.21 -29.863,0 0,0"
             style="fill:#ffd2a1;fill-opacity:1;fill-rule:evenodd;stroke:none"
             id="path49" />
        </g>
        <g
           id="g51"
           transform="translate(511.7109,373.1074)">
          <path
             d="M 0,0 C 77.387,0 140.504,63.118 140.504,140.505 140.504,217.892 77.387,281.01 0,281.01 -77.388,281.01 -140.505,217.892 -140.505,140.505 -140.505,63.118 -77.388,0 0,0"
             style="fill:#edb4a1;fill-opacity:1;fill-rule:evenodd;stroke:none"
             id="path53" />
        </g>
        <g
           id="g55"
           transform="translate(511.7109,620.3838)">
          <path
             d="m 0,0 c 58.969,0 106.771,-47.804 106.771,-106.771 0,-58.969 -47.802,-106.772 -106.771,-106.772 -58.969,0 -106.771,47.803 -106.771,106.772 C -106.771,-47.804 -58.969,0 0,0"
             style="fill:#f2c7b9;fill-opacity:1;fill-rule:evenodd;stroke:none"
             id="path57" />
        </g>
        <g
           id="g59"
           transform="translate(511.7109,586.6509)">
          <path
             d="m 0,0 c 40.338,0 73.038,-32.7 73.038,-73.039 0,-40.338 -32.7,-73.038 -73.038,-73.038 -40.339,0 -73.039,32.7 -73.039,73.038 C -73.039,-32.7 -40.339,0 0,0"
             style="fill:#f7dad0;fill-opacity:1;fill-rule:evenodd;stroke:none"
             id="path61" />
        </g>
        <g
           id="g63"
           transform="translate(511.7109,474.3066)">
          <path
             d="M 0,0 C 21.648,0 39.305,17.657 39.305,39.306 39.305,60.955 21.648,78.611 0,78.611 -21.648,78.611 -39.305,60.955 -39.305,39.306 -39.305,17.657 -21.648,0 0,0"
             style="fill:#fcede8;fill-opacity:1;fill-rule:evenodd;stroke:none"
             id="path65" />
        </g>
        <g
           id="g67"
           transform="translate(244.7563,439.1289)">
          <path
             d="m 0,0 c 0.129,5.627 10.53,5.648 10.659,0 l 4.877,-211.027 H -4.877 Z"
             style="fill:#2e1e1a;fill-opacity:1;fill-rule:evenodd;stroke:none"
             id="path69" />
        </g>
        <g
           id="g71"
           transform="translate(284.4258,399.481)">
          <path
             d="m 0,0 c 2.045,2.374 6.577,-0.994 4.753,-3.556 l -34.099,-47.859 -9.1,6.806 z"
             style="fill:#2e1e1a;fill-opacity:1;fill-rule:evenodd;stroke:none"
             id="path73" />
        </g>
        <g
           id="g75"
           transform="translate(223.1201,424.1313)">
          <path
             d="m 0,0 c -1.61,1.868 -5.176,-0.782 -3.741,-2.797 l 26.829,-37.657 7.161,5.356 z"
             style="fill:#2e1e1a;fill-opacity:1;fill-rule:evenodd;stroke:none"
             id="path77" />
        </g>
        <g
           id="g79"
           transform="translate(116.7383,577.9863)">
          <path
             d="m 0,0 c 32.925,0 59.616,-26.691 59.616,-59.615 0,-2.43 -0.15,-4.825 -0.432,-7.18 26.364,-18.604 43.586,-49.301 43.586,-84.022 0,-56.759 -46.012,-102.771 -102.77,-102.771 -56.758,0 -102.769,46.012 -102.769,102.771 0,34.721 17.221,65.418 43.585,84.022 -0.282,2.355 -0.431,4.75 -0.431,7.18 C -59.615,-26.691 -32.924,0 0,0"
             style="fill:#bf286a;fill-opacity:1;fill-rule:evenodd;stroke:none"
             id="path81" />
        </g>
        <g
           id="g83"
           transform="translate(106.7075,460.7583)">
          <path
             d="m 0,0 c 0.144,6.205 11.61,6.227 11.753,0 l 5.376,-232.657 H -5.375 Z"
             style="fill:#2e1e1a;fill-opacity:1;fill-rule:evenodd;stroke:none"
             id="path85" />
        </g>
        <g
           id="g87"
           transform="translate(150.4443,417.0464)">
          <path
             d="m 0,0 c 2.255,2.618 7.251,-1.096 5.24,-3.919 l -37.593,-52.765 -10.034,7.504 z"
             style="fill:#2e1e1a;fill-opacity:1;fill-rule:evenodd;stroke:none"
             id="path89" />
        </g>
        <g
           id="g91"
           transform="translate(82.8545,444.2241)">
          <path
             d="m 0,0 c -1.775,2.06 -5.706,-0.862 -4.124,-3.084 l 29.58,-41.517 7.894,5.905 z"
             style="fill:#2e1e1a;fill-opacity:1;fill-rule:evenodd;stroke:none"
             id="path93" />
        </g>
        <g
           id="g95"
           transform="translate(175.9224,511.1914)">
          <path
             d="M 0,0 C 68.54,-47.002 56.306,-149.946 -21.655,-179.723 51.107,-144.33 61.307,-45.94 -6.155,-2.314 1.933,44.855 -43.967,76.668 -87.377,59.717 -44.751,83.568 6.669,50.023 0,0"
             style="fill:#fcebe5;fill-opacity:1;fill-rule:evenodd;stroke:none"
             id="path97" />
        </g>
        <g
           id="g99"
           transform="translate(330.8926,165.3955)">
          <path
             d="m 0,0 h 288.016 c 3.851,0 7.002,-3.151 7.002,-7.003 0,-3.851 -3.151,-7.004 -7.002,-7.004 H 0 c -3.852,0 -7.003,3.153 -7.003,7.004 C -7.003,-3.151 -3.852,0 0,0"
             style="fill:#8a736c;fill-opacity:1;fill-rule:evenodd;stroke:none"
             id="path101" />
        </g>
        <g
           id="g103"
           transform="translate(253.8535,545.458)">
          <path
             d="m 0,0 c 29.863,0 54.073,-24.21 54.073,-54.073 0,-2.205 -0.135,-4.377 -0.391,-6.512 23.913,-16.875 39.534,-44.718 39.534,-76.211 0,-35.058 -19.357,-65.588 -47.961,-81.505 26.484,16.442 44.12,45.782 44.12,79.246 0,31.493 -15.622,59.337 -39.534,76.211 0.256,2.135 0.391,4.307 0.391,6.512 0,29.864 -24.208,54.073 -54.073,54.073 -9.198,0 -17.86,-2.3 -25.442,-6.352 C -20.843,-3.164 -10.792,0 0,0"
             style="fill:#fcede8;fill-opacity:1;fill-rule:evenodd;stroke:none"
             id="path105" />
        </g>
        <g
           id="g107"
           transform="translate(374.7402,217.2373)">
          <path
             d="M 0,0 H 12.197 L -1.4,-60.425 h -12.2 z"
             style="fill:#871619;fill-opacity:1;fill-rule:evenodd;stroke:none"
             id="path109" />
        </g>
        <g
           id="g111"
           transform="translate(385.1328,209.2178)">
          <path
             d="M 0,0 -1.575,-7.002 H -13.773 L -12.197,0 Z"
             style="fill:#750b0f;fill-opacity:1;fill-rule:evenodd;stroke:none"
             id="path113" />
        </g>
        <g
           id="g115"
           transform="translate(602.3955,217.2373)">
          <path
             d="M 0,0 H -12.199 L 1.4,-60.425 h 12.198 z"
             style="fill:#871619;fill-opacity:1;fill-rule:evenodd;stroke:none"
             id="path117" />
        </g>
        <g
           id="g119"
           transform="translate(592.001,209.2178)">
          <path
             d="M 0,0 1.576,-7.002 H 13.774 L 12.199,0 Z"
             style="fill:#750b0f;fill-opacity:1;fill-rule:evenodd;stroke:none"
             id="path121" />
        </g>
        <path
           d="m 429.849,264.114 h 5.872 v -43.372 h -5.872 z m 22.312,0 h 5.874 v -43.372 h -5.874 z m 22.313,0 h 5.874 v -43.372 h -5.874 z m 22.312,0 h 5.874 v -43.372 h -5.874 z m 22.315,0 h 5.872 v -43.372 h -5.872 z m 22.312,0 h 5.874 v -43.372 h -5.874 z m 22.314,0 h 5.873 v -43.372 h -5.873 z m 22.312,0 h 5.874 v -43.372 h -5.874 z m -200.817,0 h 5.873 v -43.372 h -5.873 z m 22.313,0 h 5.873 v -43.372 h -5.873 z"
           style="fill:#871619;fill-opacity:1;fill-rule:evenodd;stroke:none"
           id="path123" />
        <g
           id="g125"
           transform="translate(358.2275,223.2227)">
          <path
             d="m 0,0 h 260.681 c 3.851,0 7.002,-3.15 7.002,-7.001 v -0.002 c 0,-3.852 -3.151,-7.002 -7.002,-7.002 L 0,-14.005 c -3.851,0 -7.003,3.15 -7.003,7.002 v 0.002 C -7.003,-3.15 -3.851,0 0,0"
             style="fill:#9c2428;fill-opacity:1;fill-rule:evenodd;stroke:none"
             id="path127" />
        </g>
        <g
           id="g129"
           transform="translate(378.1064,267.8398)">
          <path
             d="m 0,0 h 220.923 c 1.739,0 3.162,-1.423 3.162,-3.162 v -10e-4 c 0,-1.739 -1.423,-3.162 -3.162,-3.162 L 0,-6.325 c -1.74,0 -3.163,1.423 -3.163,3.162 v 10e-4 C -3.163,-1.423 -1.74,0 0,0"
             style="fill:#9c2428;fill-opacity:1;fill-rule:evenodd;stroke:none"
             id="path131" />
        </g>
        <g
           id="g133"
           transform="translate(74.1313,522.6348)">
          <path
             d="m 0,0 c 4.9,-1.139 9.348,-4.19 12.133,-8.849 2.784,-4.658 3.366,-10.021 2.051,-14.877 -4.9,1.141 -9.349,4.191 -12.133,8.85 C -0.734,-10.218 -1.315,-4.854 0,0"
             style="fill:#8f174b;fill-opacity:1;fill-rule:evenodd;stroke:none"
             id="path135" />
        </g>
        <g
           id="g137"
           transform="translate(48.9087,434.9668)">
          <path
             d="m 0,0 c 4.899,-1.139 9.348,-4.19 12.133,-8.848 2.784,-4.659 3.366,-10.022 2.051,-14.877 -4.9,1.139 -9.349,4.19 -12.133,8.849 C -0.734,-10.218 -1.315,-4.854 0,0"
             style="fill:#8f174b;fill-opacity:1;fill-rule:evenodd;stroke:none"
             id="path139" />
        </g>
        <g
           id="g141"
           transform="translate(187.4272,451.8315)">
          <path
             d="m 0,0 c -4.898,-1.139 -9.347,-4.19 -12.132,-8.848 -2.785,-4.659 -3.367,-10.022 -2.051,-14.877 4.899,1.14 9.349,4.19 12.133,8.85 C 0.735,-10.218 1.316,-4.854 0,0"
             style="fill:#8f174b;fill-opacity:1;fill-rule:evenodd;stroke:none"
             id="path143" />
        </g>
        <g
           id="g145"
           transform="translate(139.6328,540.2334)">
          <path
             d="m 0,0 c -4.9,-1.139 -9.348,-4.191 -12.133,-8.848 -2.785,-4.659 -3.366,-10.022 -2.051,-14.878 4.899,1.14 9.348,4.191 12.133,8.849 C 0.733,-10.218 1.315,-4.854 0,0"
             style="fill:#8f174b;fill-opacity:1;fill-rule:evenodd;stroke:none"
             id="path147" />
        </g>
        <g
           id="g149"
           transform="translate(280.043,499.269)">
          <path
             d="m 0,0 c -4.898,-1.139 -9.347,-4.19 -12.133,-8.848 -2.784,-4.659 -3.365,-10.022 -2.05,-14.877 4.9,1.14 9.347,4.19 12.133,8.85 C 0.735,-10.218 1.316,-4.854 0,0"
             style="fill:#e8b176;fill-opacity:1;fill-rule:evenodd;stroke:none"
             id="path151" />
        </g>
        <g
           id="g153"
           transform="translate(316.542,415.0029)">
          <path
             d="m 0,0 c -4.9,-1.139 -9.348,-4.191 -12.133,-8.848 -2.785,-4.659 -3.368,-10.022 -2.05,-14.878 4.899,1.141 9.347,4.191 12.133,8.85 C 0.734,-10.218 1.314,-4.855 0,0"
             style="fill:#e8b176;fill-opacity:1;fill-rule:evenodd;stroke:none"
             id="path155" />
        </g>
        <g
           id="g157"
           transform="translate(287.2007,440.8408)">
          <path
             d="m 0,0 c -4.898,-1.139 -9.349,-4.191 -12.133,-8.849 -2.785,-4.658 -3.366,-10.022 -2.051,-14.877 4.9,1.141 9.349,4.19 12.133,8.85 C 0.734,-10.218 1.316,-4.854 0,0"
             style="fill:#e8b176;fill-opacity:1;fill-rule:evenodd;stroke:none"
             id="path159" />
        </g>
        <g
           id="g161"
           transform="translate(218.8745,374.1255)">
          <path
             d="m 0,0 c 4.898,-1.139 9.347,-4.191 12.133,-8.849 2.784,-4.658 3.366,-10.022 2.05,-14.877 -4.899,1.14 -9.349,4.19 -12.132,8.85 C -0.735,-10.218 -1.316,-4.855 0,0"
             style="fill:#e8b176;fill-opacity:1;fill-rule:evenodd;stroke:none"
             id="path163" />
        </g>
        <g
           id="g165"
           transform="translate(283.561,358.0781)">
          <path
             d="m 0,0 c -4.9,-1.139 -9.348,-4.19 -12.133,-8.849 -2.785,-4.658 -3.367,-10.021 -2.05,-14.876 4.899,1.14 9.348,4.19 12.133,8.849 C 0.734,-10.218 1.314,-4.854 0,0"
             style="fill:#e8b176;fill-opacity:1;fill-rule:evenodd;stroke:none"
             id="path167" />
        </g>
        <g
           id="g169"
           transform="translate(234.2354,483.0059)">
          <path
             d="m 0,0 c 4.898,-1.14 9.347,-4.191 12.133,-8.849 2.784,-4.659 3.364,-10.022 2.05,-14.877 -4.9,1.14 -9.348,4.19 -12.133,8.85 C -0.735,-10.219 -1.316,-4.855 0,0"
             style="fill:#e8b176;fill-opacity:1;fill-rule:evenodd;stroke:none"
             id="path171" />
        </g>
        <g
           id="g173"
           transform="translate(224.2012,519.9028)">
          <path
             d="m 0,0 c 4.898,-1.139 9.349,-4.19 12.133,-8.848 2.783,-4.659 3.366,-10.022 2.051,-14.877 -4.9,1.14 -9.349,4.19 -12.133,8.849 C -0.734,-10.218 -1.316,-4.854 0,0"
             style="fill:#e8b176;fill-opacity:1;fill-rule:evenodd;stroke:none"
             id="path175" />
        </g>
        <g
           id="g177"
           transform="translate(151.3794,450.3281)">
          <path
             d="m 0,0 c -4.899,-1.139 -9.348,-4.191 -12.133,-8.849 -2.786,-4.658 -3.367,-10.021 -2.051,-14.877 4.9,1.14 9.349,4.191 12.133,8.85 C 0.734,-10.218 1.315,-4.855 0,0"
             style="fill:#8f174b;fill-opacity:1;fill-rule:evenodd;stroke:none"
             id="path179" />
        </g>
        <g
           id="g181"
           transform="translate(79.1787,370.3618)">
          <path
             d="m 0,0 c 4.899,-1.14 9.348,-4.19 12.133,-8.849 2.785,-4.658 3.366,-10.021 2.051,-14.876 -4.9,1.139 -9.349,4.19 -12.133,8.849 C -0.734,-10.218 -1.316,-4.854 0,0"
             style="fill:#8f174b;fill-opacity:1;fill-rule:evenodd;stroke:none"
             id="path183" />
        </g>
        <g
           id="g185"
           transform="translate(60.5776,490.106)">
          <path
             d="m 0,0 c 4.899,-1.139 9.348,-4.19 12.133,-8.849 2.784,-4.658 3.366,-10.021 2.051,-14.876 -4.9,1.139 -9.349,4.19 -12.133,8.849 C -0.734,-10.218 -1.315,-4.854 0,0"
             style="fill:#8f174b;fill-opacity:1;fill-rule:evenodd;stroke:none"
             id="path187" />
        </g>
        <g
           id="g189"
           transform="translate(170.2603,382.2573)">
          <path
             d="m 0,0 c -4.9,-1.14 -9.348,-4.191 -12.133,-8.849 -2.785,-4.659 -3.366,-10.022 -2.051,-14.877 4.9,1.14 9.348,4.19 12.133,8.85 C 0.734,-10.219 1.315,-4.855 0,0"
             style="fill:#8f174b;fill-opacity:1;fill-rule:evenodd;stroke:none"
             id="path191" />
        </g>
        <g
           id="g193"
           transform="translate(28.1968,138.2881)">
          <path
             d="m 0,0 h 94.537 c 3.852,0 7.002,-3.151 7.002,-7.003 0,-3.851 -3.15,-7.003 -7.002,-7.003 H 0 c -3.853,0 -7.003,3.152 -7.003,7.003 C -7.003,-3.151 -3.853,0 0,0"
             style="fill:#baa8a2;fill-opacity:1;fill-rule:evenodd;stroke:none"
             id="path195" />
        </g>
        <g
           id="g197"
           transform="translate(215.6875,115.1357)">
          <path
             d="m 0,0 h 48.002 c 3.853,0 7.003,-3.151 7.003,-7.003 0,-3.851 -3.15,-7.003 -7.003,-7.003 H 0 c -3.852,0 -7.002,3.152 -7.002,7.003 C -7.002,-3.151 -3.852,0 0,0"
             style="fill:#baa8a2;fill-opacity:1;fill-rule:evenodd;stroke:none"
             id="path199" />
        </g>
        <g
           id="g201"
           transform="translate(488.3965,124.3965)">
          <path
             d="m 0,0 h 48.002 c 3.852,0 7.003,-3.15 7.003,-7.002 v -0.001 c 0,-3.851 -3.151,-7.002 -7.003,-7.002 H 0 c -3.852,0 -7.002,3.151 -7.002,7.002 v 0.001 C -7.002,-3.15 -3.852,0 0,0"
             style="fill:#baa8a2;fill-opacity:1;fill-rule:evenodd;stroke:none"
             id="path203" />
        </g>
        <g
           id="g205"
           transform="translate(434.916,124.3965)">
          <path
             d="m 0,0 h 22.42 c 3.853,0 7.004,-3.15 7.004,-7.002 v -0.001 c 0,-3.851 -3.151,-7.002 -7.004,-7.002 H 0 c -3.852,0 -7.002,3.151 -7.002,7.002 v 0.001 C -7.002,-3.15 -3.852,0 0,0"
             style="fill:#baa8a2;fill-opacity:1;fill-rule:evenodd;stroke:none"
             id="path207" />
        </g>
      </g>
    </g>
  </g>
</svg>
